<?xml version="1.0" encoding="utf-8"?>
<!-- Generator: Adobe Illustrator 23.1.0, SVG Export Plug-In . SVG Version: 6.00 Build 0)  -->
<svg version="1.1" id="Layer_1" xmlns="http://www.w3.org/2000/svg" xmlns:xlink="http://www.w3.org/1999/xlink" x="0px" y="0px"
	 viewBox="0 0 425 425" style="enable-background:new 0 0 425 425;" xml:space="preserve">
<path d="M54.33,50.7c31.73,47.87,67.39,111,97,189c24.75,65.2,39.27,124.99,48,175c16.31-59.21,38.75-126.25,70-198
	c33.96-77.95,71.01-144.67,106-200c-32.7,32.12-71.98,76.92-108,136c-29.06,47.67-48.64,92.55-62,130
	c-12.71-35.07-32.34-79.15-63-126C112.44,111.04,80.81,76.1,54.33,50.7z"/>
<polygon points="134.33,113.7 172.33,86.7 205.33,146.7 241.33,78.7 272.33,112.7 240.33,46.7 208.33,116.7 174.33,46.7 "/>
<circle cx="269.33" cy="372.7" r="10"/>
</svg>
